# xmcd
#
# Track frame offsets:
#	150
#	30840
#	62975
#	77052
#	90477
#	103782
#	132279
#	143993
#	157803
#	173885
#	187447
#	200802
#	212006
#	234100
#	247802
#	264157
#
# Disc length: 3871 seconds
#
# Revision: 0
# Processed by: cddbd v1.5.2PL0 Copyright (c) Steve Scherf et al.
# Submitted via: EasyCDDAExtractor 16.0.6.1
#
DISCID=d50f1d10
DTITLE=Various Artist - Smooth Jazz and The City
DYEAR=1900
DGENRE=
TTITLE0=Duke Ellington and Johnny Hodges - Let's Fall In Love
TTITLE1=Stan Getz - Everything Happens To Me
TTITLE2=Jose Melis - Have You Met Miss Jones?
TTITLE3=Les Paul and Mary Ford - I'm A Fool To Care
TTITLE4=Jo Stafford - For You
TTITLE5=Dave Brubeck and Carmen McRae - Late Lament
TTITLE6=Abbe Lane - Any Man Can Be Had
TTITLE7=Ann Richards - I Couldn't Sleep A Wink Last Night
TTITLE8=Dinah Shore With The Red Norvo Quintet - I Can't Believe That You're I
TTITLE8=n Love With Me
TTITLE9=Metropolitan Jazz Quartet - Dream Along With Me
TTITLE10=Nina Simone - Something To Live For
TTITLE11=Toots Thielemans as Jean Thielemans - Don't Blame Me
TTITLE12=Annie Ross With The Buddy Bregman Band - Together
TTITLE13=Sarah Vaughan - Every Time I See You
TTITLE14=Paul Desmond and Strings - Desmond Blue
TTITLE15=Chet Baker - I Talk To The Trees
EXTD=
EXTT0=
EXTT1=
EXTT2=
EXTT3=
EXTT4=
EXTT5=
EXTT6=
EXTT7=
EXTT8=
EXTT9=
EXTT10=
EXTT11=
EXTT12=
EXTT13=
EXTT14=
EXTT15=
PLAYORDER=
